<mxfile host="app.diagrams.net" modified="2024-05-13T16:36:07.573Z" agent="Mozilla/5.0 (Macintosh; Intel Mac OS X 10_15_7) AppleWebKit/605.1.15 (KHTML, like Gecko) Version/17.4.1 Safari/605.1.15" etag="veelaoYNZxjhJE4iCdzD" version="24.4.0" type="github">
  <diagram name="Страница 1" id="C4cH1xLUQUfybdzY-Pvg">
    <mxGraphModel dx="2693" dy="2250" grid="1" gridSize="10" guides="1" tooltips="1" connect="1" arrows="1" fold="1" page="1" pageScale="1" pageWidth="827" pageHeight="1169" math="0" shadow="0">
      <root>
        <mxCell id="0" />
        <mxCell id="1" parent="0" />
        <mxCell id="oiA-mQmHKhEabUs_qZRi-52" value="" style="rounded=0;whiteSpace=wrap;html=1;" parent="1" vertex="1">
          <mxGeometry x="130" y="-190" width="1180" height="870" as="geometry" />
        </mxCell>
        <mxCell id="oiA-mQmHKhEabUs_qZRi-24" value="" style="rounded=0;whiteSpace=wrap;html=1;" parent="1" vertex="1">
          <mxGeometry x="190" y="-130" width="750" height="310" as="geometry" />
        </mxCell>
        <mxCell id="RmWxMyqj5i7oZx28vhqG-12" style="edgeStyle=orthogonalEdgeStyle;rounded=0;orthogonalLoop=1;jettySize=auto;html=1;strokeWidth=4;strokeColor=#004C99;exitX=-0.014;exitY=0.964;exitDx=0;exitDy=0;exitPerimeter=0;startArrow=classic;startFill=1;entryX=0.129;entryY=0.997;entryDx=0;entryDy=0;entryPerimeter=0;" parent="1" target="oiA-mQmHKhEabUs_qZRi-6" edge="1">
          <mxGeometry relative="1" as="geometry">
            <mxPoint x="624.98" y="643.52" as="sourcePoint" />
            <mxPoint x="231.36999999999998" y="160" as="targetPoint" />
            <Array as="points">
              <mxPoint x="232" y="644" />
            </Array>
          </mxGeometry>
        </mxCell>
        <mxCell id="RmWxMyqj5i7oZx28vhqG-17" style="edgeStyle=orthogonalEdgeStyle;rounded=0;orthogonalLoop=1;jettySize=auto;html=1;strokeWidth=4;strokeColor=#33A64C;" parent="1" source="oiA-mQmHKhEabUs_qZRi-4" edge="1">
          <mxGeometry relative="1" as="geometry">
            <mxPoint x="690" y="114" as="targetPoint" />
            <Array as="points">
              <mxPoint x="300" y="530" />
              <mxPoint x="300" y="260" />
              <mxPoint x="690" y="260" />
            </Array>
          </mxGeometry>
        </mxCell>
        <mxCell id="OaGA0c1bOPBYphkwenMN-9" style="edgeStyle=orthogonalEdgeStyle;rounded=0;orthogonalLoop=1;jettySize=auto;html=1;entryX=0.367;entryY=0.029;entryDx=0;entryDy=0;entryPerimeter=0;strokeWidth=4;strokeColor=#00CCCC;" parent="1" source="oiA-mQmHKhEabUs_qZRi-4" target="oiA-mQmHKhEabUs_qZRi-50" edge="1">
          <mxGeometry relative="1" as="geometry">
            <Array as="points">
              <mxPoint x="722" y="700" />
              <mxPoint x="722" y="700" />
            </Array>
          </mxGeometry>
        </mxCell>
        <mxCell id="OaGA0c1bOPBYphkwenMN-11" value="&lt;font style=&quot;font-size: 13px;&quot; color=&quot;#00cccc&quot;&gt;Answer with status&lt;/font&gt;" style="edgeLabel;html=1;align=center;verticalAlign=middle;resizable=0;points=[];" parent="OaGA0c1bOPBYphkwenMN-9" vertex="1" connectable="0">
          <mxGeometry x="-0.1037" y="4" relative="1" as="geometry">
            <mxPoint y="1" as="offset" />
          </mxGeometry>
        </mxCell>
        <mxCell id="oiA-mQmHKhEabUs_qZRi-4" value="&lt;span style=&quot;font-size: 20px;&quot;&gt;&lt;b&gt;The main file of this project&lt;/b&gt;&lt;/span&gt;&lt;br style=&quot;font-size: 14px&quot;&gt;It contains instructions inside for intercepting and processing messages in telegram" style="html=1;shadow=0;dashed=0;shape=mxgraph.bootstrap.rrect;rSize=5;strokeColor=#5B646A;html=1;whiteSpace=wrap;fillColor=#6C767D;fontColor=#ffffff;verticalAlign=bottom;align=left;spacing=20;spacingBottom=0;fontSize=14;" parent="1" vertex="1">
          <mxGeometry x="630" y="470" width="250" height="180" as="geometry" />
        </mxCell>
        <mxCell id="oiA-mQmHKhEabUs_qZRi-5" value="bot.py" style="html=1;shadow=0;dashed=0;shape=mxgraph.bootstrap.topButton;rSize=5;perimeter=none;whiteSpace=wrap;fillColor=#697279;strokeColor=#5B646A;fontColor=#ffffff;resizeWidth=1;fontSize=18;align=left;spacing=20;" parent="oiA-mQmHKhEabUs_qZRi-4" vertex="1">
          <mxGeometry width="250" height="50" relative="1" as="geometry" />
        </mxCell>
        <mxCell id="oiA-mQmHKhEabUs_qZRi-6" value="&lt;span style=&quot;font-size: 20px;&quot;&gt;&lt;b&gt;The instagram downloader class&lt;/b&gt;&lt;/span&gt;&lt;br style=&quot;font-size: 14px&quot;&gt;Contains classes and methods for uploading content from instagram to temporary storage." style="html=1;shadow=0;dashed=0;shape=mxgraph.bootstrap.rrect;rSize=5;strokeColor=#0071D5;html=1;whiteSpace=wrap;fillColor=#0085FC;fontColor=#ffffff;verticalAlign=bottom;align=left;spacing=20;spacingBottom=0;fontSize=14;" parent="1" vertex="1">
          <mxGeometry x="200" y="-70" width="250" height="180" as="geometry" />
        </mxCell>
        <mxCell id="oiA-mQmHKhEabUs_qZRi-7" value="downloader.py" style="html=1;shadow=0;dashed=0;shape=mxgraph.bootstrap.topButton;rSize=5;perimeter=none;whiteSpace=wrap;fillColor=#0081F4;strokeColor=#0071D5;fontColor=#ffffff;resizeWidth=1;fontSize=18;align=left;spacing=20;" parent="oiA-mQmHKhEabUs_qZRi-6" vertex="1">
          <mxGeometry width="250" height="50" relative="1" as="geometry" />
        </mxCell>
        <mxCell id="oiA-mQmHKhEabUs_qZRi-8" value="&lt;span style=&quot;font-size: 20px;&quot;&gt;&lt;b&gt;The cloud uploader class&lt;/b&gt;&lt;/span&gt;&lt;br style=&quot;font-size: 14px&quot;&gt;Contains classes and methods for uploading content from a temporary directory to the cloud" style="html=1;shadow=0;dashed=0;shape=mxgraph.bootstrap.rrect;rSize=5;strokeColor=#2B8D40;html=1;whiteSpace=wrap;fillColor=#33A64C;fontColor=#ffffff;verticalAlign=bottom;align=left;spacing=20;spacingBottom=0;fontSize=14;" parent="1" vertex="1">
          <mxGeometry x="631" y="-70" width="250" height="180" as="geometry" />
        </mxCell>
        <mxCell id="oiA-mQmHKhEabUs_qZRi-9" value="uploader.py" style="html=1;shadow=0;dashed=0;shape=mxgraph.bootstrap.topButton;rSize=5;perimeter=none;whiteSpace=wrap;fillColor=#31A14A;strokeColor=#2B8D40;fontColor=#ffffff;resizeWidth=1;fontSize=18;align=left;spacing=20;" parent="oiA-mQmHKhEabUs_qZRi-8" vertex="1">
          <mxGeometry width="250" height="50" relative="1" as="geometry" />
        </mxCell>
        <mxCell id="oiA-mQmHKhEabUs_qZRi-10" value="&lt;span style=&quot;font-size: 20px;&quot;&gt;&lt;b&gt;The constants of this project&lt;/b&gt;&lt;/span&gt;&lt;br style=&quot;font-size: 14px&quot;&gt;It contains all constants and environments variables" style="html=1;shadow=0;dashed=0;shape=mxgraph.bootstrap.rrect;rSize=5;strokeColor=#5B646A;html=1;whiteSpace=wrap;fillColor=#6C767D;fontColor=#ffffff;verticalAlign=bottom;align=left;spacing=20;spacingBottom=0;fontSize=14;" parent="1" vertex="1">
          <mxGeometry x="631" y="280" width="250" height="180" as="geometry" />
        </mxCell>
        <mxCell id="oiA-mQmHKhEabUs_qZRi-11" value="constants.py" style="html=1;shadow=0;dashed=0;shape=mxgraph.bootstrap.topButton;rSize=5;perimeter=none;whiteSpace=wrap;fillColor=#697279;strokeColor=#5B646A;fontColor=#ffffff;resizeWidth=1;fontSize=18;align=left;spacing=20;" parent="oiA-mQmHKhEabUs_qZRi-10" vertex="1">
          <mxGeometry width="250" height="50" relative="1" as="geometry" />
        </mxCell>
        <mxCell id="oiA-mQmHKhEabUs_qZRi-25" value="&lt;b&gt;Tools&lt;/b&gt;" style="text;html=1;strokeColor=none;fillColor=none;align=center;verticalAlign=middle;whiteSpace=wrap;rounded=0;" parent="1" vertex="1">
          <mxGeometry x="520" y="-130" width="60" height="30" as="geometry" />
        </mxCell>
        <mxCell id="oiA-mQmHKhEabUs_qZRi-26" value="" style="rounded=0;whiteSpace=wrap;html=1;" parent="1" vertex="1">
          <mxGeometry x="960" y="-130" width="300" height="310" as="geometry" />
        </mxCell>
        <mxCell id="oiA-mQmHKhEabUs_qZRi-20" value="&lt;span style=&quot;font-size: 20px;&quot;&gt;&lt;b&gt;Configuration for the messages module&lt;/b&gt;&lt;/span&gt;&lt;br style=&quot;font-size: 14px&quot;&gt;The configuration contains templates for generating messages in a telegram" style="html=1;shadow=0;dashed=0;shape=mxgraph.bootstrap.rrect;rSize=5;strokeColor=#6C767D;html=1;whiteSpace=wrap;fillColor=#ffffff;fontColor=#212529;verticalAlign=bottom;align=left;spacing=20;spacingBottom=0;fontSize=14;" parent="1" vertex="1">
          <mxGeometry x="985" y="-70" width="250" height="180" as="geometry" />
        </mxCell>
        <mxCell id="oiA-mQmHKhEabUs_qZRi-21" value="messages.json" style="html=1;shadow=0;dashed=0;shape=mxgraph.bootstrap.topButton;rSize=5;perimeter=none;whiteSpace=wrap;fillColor=#F7F7F7;strokeColor=#6C767D;fontColor=#6C767D;resizeWidth=1;fontSize=18;align=left;spacing=20;" parent="oiA-mQmHKhEabUs_qZRi-20" vertex="1">
          <mxGeometry width="250" height="50" relative="1" as="geometry" />
        </mxCell>
        <mxCell id="oiA-mQmHKhEabUs_qZRi-30" value="" style="rounded=0;whiteSpace=wrap;html=1;" parent="1" vertex="1">
          <mxGeometry x="1320" y="-190" width="1420" height="370" as="geometry" />
        </mxCell>
        <mxCell id="oiA-mQmHKhEabUs_qZRi-31" value="&lt;b&gt;External modules&lt;/b&gt;" style="text;html=1;strokeColor=none;fillColor=none;align=center;verticalAlign=middle;whiteSpace=wrap;rounded=0;" parent="1" vertex="1">
          <mxGeometry x="2040" y="-180" width="60" height="30" as="geometry" />
        </mxCell>
        <mxCell id="oiA-mQmHKhEabUs_qZRi-32" value="&lt;b&gt;&lt;font style=&quot;font-size: 20px&quot;&gt;Interactions with vault-server&lt;/font&gt;&lt;/b&gt;&lt;br style=&quot;font-size: 14px&quot;&gt;&lt;br style=&quot;font-size: 14px&quot;&gt;A class that implements convenient methods for reading, writing, and retrieving a list of secrets from vault" style="html=1;shadow=0;dashed=0;shape=mxgraph.bootstrap.rrect;rSize=5;strokeColor=#188C9C;html=1;whiteSpace=wrap;fillColor=#1CA5B8;fontColor=#ffffff;verticalAlign=bottom;align=left;spacing=20;spacingBottom=0;fontSize=14;" parent="1" vertex="1">
          <mxGeometry x="1340" y="-70" width="250" height="210" as="geometry" />
        </mxCell>
        <mxCell id="oiA-mQmHKhEabUs_qZRi-33" value="vault-package" style="html=1;shadow=0;dashed=0;shape=mxgraph.bootstrap.topButton;rSize=5;perimeter=none;whiteSpace=wrap;fillColor=#1BA0B2;strokeColor=#188C9C;fontColor=#ffffff;resizeWidth=1;fontSize=18;align=left;spacing=20;" parent="oiA-mQmHKhEabUs_qZRi-32" vertex="1">
          <mxGeometry width="250" height="50" relative="1" as="geometry" />
        </mxCell>
        <mxCell id="RmWxMyqj5i7oZx28vhqG-9" style="edgeStyle=orthogonalEdgeStyle;rounded=0;orthogonalLoop=1;jettySize=auto;html=1;strokeWidth=4;strokeColor=#007FFF;startArrow=classic;startFill=1;" parent="1" source="oiA-mQmHKhEabUs_qZRi-34" target="oiA-mQmHKhEabUs_qZRi-32" edge="1">
          <mxGeometry relative="1" as="geometry" />
        </mxCell>
        <mxCell id="oiA-mQmHKhEabUs_qZRi-34" value="&lt;span style=&quot;font-size: 20px;&quot;&gt;&lt;b&gt;Easy management of user attributes and permissions&lt;/b&gt;&lt;/span&gt;&lt;br style=&quot;font-size: 14px&quot;&gt;A class that implements convenient methods for auth and rate limit functions" style="html=1;shadow=0;dashed=0;shape=mxgraph.bootstrap.rrect;rSize=5;strokeColor=#188C9C;html=1;whiteSpace=wrap;fillColor=#1CA5B8;fontColor=#ffffff;verticalAlign=bottom;align=left;spacing=20;spacingBottom=0;fontSize=14;" parent="1" vertex="1">
          <mxGeometry x="1639" y="-70" width="250" height="210" as="geometry" />
        </mxCell>
        <mxCell id="oiA-mQmHKhEabUs_qZRi-35" value="users-package" style="html=1;shadow=0;dashed=0;shape=mxgraph.bootstrap.topButton;rSize=5;perimeter=none;whiteSpace=wrap;fillColor=#1BA0B2;strokeColor=#188C9C;fontColor=#ffffff;resizeWidth=1;fontSize=18;align=left;spacing=20;" parent="oiA-mQmHKhEabUs_qZRi-34" vertex="1">
          <mxGeometry width="250" height="50" relative="1" as="geometry" />
        </mxCell>
        <mxCell id="oiA-mQmHKhEabUs_qZRi-36" value="&lt;span style=&quot;font-size: 20px;&quot;&gt;&lt;b&gt;Fast configuration and&amp;nbsp;initialization bot&lt;/b&gt;&lt;/span&gt;&lt;br style=&quot;font-size: 14px&quot;&gt;A class that implements convenient methods for bot handlers" style="html=1;shadow=0;dashed=0;shape=mxgraph.bootstrap.rrect;rSize=5;strokeColor=#188C9C;html=1;whiteSpace=wrap;fillColor=#1CA5B8;fontColor=#ffffff;verticalAlign=bottom;align=left;spacing=20;spacingBottom=0;fontSize=14;" parent="1" vertex="1">
          <mxGeometry x="2200" y="-70" width="250" height="210" as="geometry" />
        </mxCell>
        <mxCell id="oiA-mQmHKhEabUs_qZRi-37" value="telegram-package" style="html=1;shadow=0;dashed=0;shape=mxgraph.bootstrap.topButton;rSize=5;perimeter=none;whiteSpace=wrap;fillColor=#1BA0B2;strokeColor=#188C9C;fontColor=#ffffff;resizeWidth=1;fontSize=18;align=left;spacing=20;" parent="oiA-mQmHKhEabUs_qZRi-36" vertex="1">
          <mxGeometry width="250" height="50" relative="1" as="geometry" />
        </mxCell>
        <mxCell id="oiA-mQmHKhEabUs_qZRi-38" value="&lt;span style=&quot;font-size: 20px;&quot;&gt;&lt;b&gt;Easy and unified generation messages&lt;/b&gt;&lt;/span&gt;&lt;br style=&quot;font-size: 14px&quot;&gt;A class that implements convenient methods for generating messages or a progress bar according to a given template" style="html=1;shadow=0;dashed=0;shape=mxgraph.bootstrap.rrect;rSize=5;strokeColor=#188C9C;html=1;whiteSpace=wrap;fillColor=#1CA5B8;fontColor=#ffffff;verticalAlign=bottom;align=left;spacing=20;spacingBottom=0;fontSize=14;" parent="1" vertex="1">
          <mxGeometry x="1930" y="-70" width="250" height="210" as="geometry" />
        </mxCell>
        <mxCell id="oiA-mQmHKhEabUs_qZRi-39" value="messages-package" style="html=1;shadow=0;dashed=0;shape=mxgraph.bootstrap.topButton;rSize=5;perimeter=none;whiteSpace=wrap;fillColor=#1BA0B2;strokeColor=#188C9C;fontColor=#ffffff;resizeWidth=1;fontSize=18;align=left;spacing=20;" parent="oiA-mQmHKhEabUs_qZRi-38" vertex="1">
          <mxGeometry width="250" height="50" relative="1" as="geometry" />
        </mxCell>
        <mxCell id="oiA-mQmHKhEabUs_qZRi-40" value="&lt;span style=&quot;font-size: 20px;&quot;&gt;&lt;b&gt;Easy and unified logging&lt;/b&gt;&lt;/span&gt;&lt;br style=&quot;font-size: 14px&quot;&gt;Contains ready-made logger settings" style="html=1;shadow=0;dashed=0;shape=mxgraph.bootstrap.rrect;rSize=5;strokeColor=#188C9C;html=1;whiteSpace=wrap;fillColor=#1CA5B8;fontColor=#ffffff;verticalAlign=bottom;align=left;spacing=20;spacingBottom=0;fontSize=14;" parent="1" vertex="1">
          <mxGeometry x="2470" y="-70" width="250" height="210" as="geometry" />
        </mxCell>
        <mxCell id="oiA-mQmHKhEabUs_qZRi-41" value="logger-package" style="html=1;shadow=0;dashed=0;shape=mxgraph.bootstrap.topButton;rSize=5;perimeter=none;whiteSpace=wrap;fillColor=#1BA0B2;strokeColor=#188C9C;fontColor=#ffffff;resizeWidth=1;fontSize=18;align=left;spacing=20;" parent="oiA-mQmHKhEabUs_qZRi-40" vertex="1">
          <mxGeometry width="250" height="50" relative="1" as="geometry" />
        </mxCell>
        <mxCell id="oiA-mQmHKhEabUs_qZRi-47" value="Vault-Server" style="html=1;shadow=0;dashed=0;shape=mxgraph.bootstrap.rrect;rSize=5;strokeColor=none;strokeWidth=1;fillColor=#DB2843;fontColor=#FFFFFF;whiteSpace=wrap;align=center;verticalAlign=middle;spacingLeft=0;fontStyle=0;fontSize=16;spacing=5;" parent="1" vertex="1">
          <mxGeometry x="1320" y="-385" width="290" height="70" as="geometry" />
        </mxCell>
        <mxCell id="oiA-mQmHKhEabUs_qZRi-48" style="edgeStyle=orthogonalEdgeStyle;rounded=0;orthogonalLoop=1;jettySize=auto;html=1;entryX=0.501;entryY=1.092;entryDx=0;entryDy=0;entryPerimeter=0;strokeWidth=4;fillColor=#f8cecc;strokeColor=#007FFF;startArrow=classic;startFill=1;" parent="1" target="oiA-mQmHKhEabUs_qZRi-47" edge="1">
          <mxGeometry relative="1" as="geometry">
            <mxPoint x="1465" y="-70" as="sourcePoint" />
          </mxGeometry>
        </mxCell>
        <mxCell id="OaGA0c1bOPBYphkwenMN-3" value="&lt;font color=&quot;#3399ff&quot; style=&quot;font-size: 13px;&quot;&gt;read users attributes&lt;/font&gt;" style="edgeLabel;html=1;align=center;verticalAlign=middle;resizable=0;points=[];" parent="oiA-mQmHKhEabUs_qZRi-48" vertex="1" connectable="0">
          <mxGeometry x="0.0986" relative="1" as="geometry">
            <mxPoint y="1" as="offset" />
          </mxGeometry>
        </mxCell>
        <mxCell id="RmWxMyqj5i7oZx28vhqG-1" style="edgeStyle=orthogonalEdgeStyle;rounded=0;orthogonalLoop=1;jettySize=auto;html=1;strokeWidth=4;strokeColor=#007FFF;entryX=0.5;entryY=1;entryDx=0;entryDy=0;entryPerimeter=0;" parent="1" edge="1">
          <mxGeometry relative="1" as="geometry">
            <mxPoint x="789.9999999999995" y="650" as="targetPoint" />
            <mxPoint x="789.9999999999995" y="880" as="sourcePoint" />
          </mxGeometry>
        </mxCell>
        <mxCell id="oiA-mQmHKhEabUs_qZRi-50" value="telegram" style="html=1;shadow=0;dashed=0;shape=mxgraph.bootstrap.rrect;rSize=5;strokeColor=none;strokeWidth=1;fillColor=#0085FC;fontColor=#FFFFFF;whiteSpace=wrap;align=center;verticalAlign=middle;spacingLeft=0;fontStyle=0;fontSize=16;spacing=5;" parent="1" vertex="1">
          <mxGeometry x="630" y="880" width="250" height="80" as="geometry" />
        </mxCell>
        <mxCell id="oiA-mQmHKhEabUs_qZRi-51" value="Instagram" style="html=1;shadow=0;dashed=0;shape=mxgraph.bootstrap.rrect;rSize=5;strokeColor=none;strokeWidth=1;fillColor=#990099;fontColor=#FFFFFF;whiteSpace=wrap;align=center;verticalAlign=middle;spacingLeft=0;fontStyle=0;fontSize=16;spacing=5;" parent="1" vertex="1">
          <mxGeometry x="220" y="-380" width="230" height="70" as="geometry" />
        </mxCell>
        <mxCell id="RmWxMyqj5i7oZx28vhqG-3" value="&lt;h1&gt;&lt;font color=&quot;#007fff&quot;&gt;0. Send link profile or post&lt;br&gt;&lt;/font&gt;&lt;/h1&gt;&lt;div style=&quot;font-size: 13px;&quot;&gt;&lt;p style=&quot;margin: 0px; font-style: normal; font-variant-caps: normal; font-stretch: normal; line-height: normal; font-family: &amp;quot;Helvetica Neue&amp;quot;; font-size-adjust: none; font-kerning: auto; font-variant-alternates: normal; font-variant-ligatures: normal; font-variant-numeric: normal; font-variant-east-asian: normal; font-variant-position: normal; font-feature-settings: normal; font-optical-sizing: auto; font-variation-settings: normal;&quot;&gt;&lt;font color=&quot;#007fff&quot;&gt;https://www.instagram.com/p/ASa3rahxieho&lt;/font&gt;&lt;/p&gt;&lt;p style=&quot;margin: 0px; font-style: normal; font-variant-caps: normal; font-stretch: normal; line-height: normal; font-family: &amp;quot;Helvetica Neue&amp;quot;; font-size-adjust: none; font-kerning: auto; font-variant-alternates: normal; font-variant-ligatures: normal; font-variant-numeric: normal; font-variant-east-asian: normal; font-variant-position: normal; font-feature-settings: normal; font-optical-sizing: auto; font-variation-settings: normal;&quot;&gt;&lt;font color=&quot;#007fff&quot;&gt;https://www.instagram.com/username/&lt;/font&gt;&lt;br&gt;&lt;/p&gt;&lt;/div&gt;" style="text;html=1;strokeColor=none;fillColor=none;spacing=5;spacingTop=-20;whiteSpace=wrap;overflow=hidden;rounded=0;" parent="1" vertex="1">
          <mxGeometry x="800" y="760" width="270" height="120" as="geometry" />
        </mxCell>
        <mxCell id="RmWxMyqj5i7oZx28vhqG-7" style="edgeStyle=orthogonalEdgeStyle;rounded=0;orthogonalLoop=1;jettySize=auto;html=1;strokeWidth=4;strokeColor=#007FFF;exitX=1.021;exitY=0.99;exitDx=0;exitDy=0;exitPerimeter=0;startArrow=classic;startFill=1;" parent="1" source="oiA-mQmHKhEabUs_qZRi-4" target="oiA-mQmHKhEabUs_qZRi-34" edge="1">
          <mxGeometry relative="1" as="geometry">
            <mxPoint x="1630" y="470" as="targetPoint" />
          </mxGeometry>
        </mxCell>
        <mxCell id="RmWxMyqj5i7oZx28vhqG-8" value="&lt;h1&gt;&lt;font color=&quot;#007fff&quot;&gt;1. User Authentication&amp;nbsp;&lt;/font&gt;&lt;/h1&gt;&lt;p&gt;&lt;font color=&quot;#007fff&quot;&gt;get permissions and attributes&lt;/font&gt;&lt;/p&gt;" style="text;html=1;strokeColor=none;fillColor=none;spacing=5;spacingTop=-20;whiteSpace=wrap;overflow=hidden;rounded=0;" parent="1" vertex="1">
          <mxGeometry x="905" y="580" width="275" height="80" as="geometry" />
        </mxCell>
        <mxCell id="RmWxMyqj5i7oZx28vhqG-11" value="&lt;h1&gt;&lt;font color=&quot;#004c99&quot;&gt;2. Download content from instagram&amp;nbsp;&lt;/font&gt;&lt;/h1&gt;&lt;p&gt;&lt;font color=&quot;#004c99&quot;&gt;Post-id or Profile name&lt;/font&gt;&lt;br&gt;&lt;/p&gt;" style="text;html=1;strokeColor=none;fillColor=none;spacing=5;spacingTop=-20;whiteSpace=wrap;overflow=hidden;rounded=0;" parent="1" vertex="1">
          <mxGeometry x="242" y="546" width="383" height="95" as="geometry" />
        </mxCell>
        <mxCell id="RmWxMyqj5i7oZx28vhqG-13" style="edgeStyle=orthogonalEdgeStyle;rounded=0;orthogonalLoop=1;jettySize=auto;html=1;strokeWidth=4;strokeColor=#004C99;exitX=0.51;exitY=-0.106;exitDx=0;exitDy=0;exitPerimeter=0;startArrow=classic;startFill=1;entryX=0.464;entryY=1.04;entryDx=0;entryDy=0;entryPerimeter=0;" parent="1" source="oiA-mQmHKhEabUs_qZRi-7" target="oiA-mQmHKhEabUs_qZRi-51" edge="1">
          <mxGeometry relative="1" as="geometry">
            <mxPoint x="365" y="-80" as="sourcePoint" />
            <Array as="points">
              <mxPoint x="327" y="-100" />
              <mxPoint x="327" y="-100" />
            </Array>
            <mxPoint x="350" y="-230" as="targetPoint" />
          </mxGeometry>
        </mxCell>
        <mxCell id="OaGA0c1bOPBYphkwenMN-1" value="download content to temporarily storage" style="edgeLabel;html=1;align=center;verticalAlign=middle;resizable=0;points=[];fontSize=13;fontColor=#004C99;" parent="RmWxMyqj5i7oZx28vhqG-13" vertex="1" connectable="0">
          <mxGeometry x="-0.2698" relative="1" as="geometry">
            <mxPoint as="offset" />
          </mxGeometry>
        </mxCell>
        <mxCell id="RmWxMyqj5i7oZx28vhqG-18" value="&lt;h1&gt;&lt;font color=&quot;#33a64c&quot;&gt;3. Upload content to cloud&amp;nbsp;&lt;/font&gt;&lt;/h1&gt;&lt;p&gt;&lt;font color=&quot;#33a64c&quot;&gt;From&amp;nbsp;temporarily&amp;nbsp;directory&amp;nbsp;&lt;/font&gt;&lt;br&gt;&lt;/p&gt;" style="text;html=1;strokeColor=none;fillColor=none;spacing=5;spacingTop=-20;whiteSpace=wrap;overflow=hidden;rounded=0;" parent="1" vertex="1">
          <mxGeometry x="310" y="460" width="365" height="80" as="geometry" />
        </mxCell>
        <mxCell id="RmWxMyqj5i7oZx28vhqG-19" value="Cloud" style="ellipse;shape=cloud;whiteSpace=wrap;html=1;strokeWidth=5;" parent="1" vertex="1">
          <mxGeometry x="701" y="-390" width="120" height="80" as="geometry" />
        </mxCell>
        <mxCell id="RmWxMyqj5i7oZx28vhqG-20" style="edgeStyle=orthogonalEdgeStyle;rounded=0;orthogonalLoop=1;jettySize=auto;html=1;strokeWidth=4;strokeColor=#33A64C;exitX=0.541;exitY=-0.012;exitDx=0;exitDy=0;exitPerimeter=0;entryX=0.55;entryY=0.95;entryDx=0;entryDy=0;entryPerimeter=0;" parent="1" source="oiA-mQmHKhEabUs_qZRi-9" target="RmWxMyqj5i7oZx28vhqG-19" edge="1">
          <mxGeometry relative="1" as="geometry">
            <mxPoint x="740" y="-230" as="targetPoint" />
            <Array as="points">
              <mxPoint x="766" y="-294" />
            </Array>
          </mxGeometry>
        </mxCell>
        <mxCell id="OaGA0c1bOPBYphkwenMN-2" value="&lt;font style=&quot;font-size: 13px;&quot; color=&quot;#33a64c&quot;&gt;upload content to cloud&lt;/font&gt;" style="edgeLabel;html=1;align=center;verticalAlign=middle;resizable=0;points=[];" parent="RmWxMyqj5i7oZx28vhqG-20" vertex="1" connectable="0">
          <mxGeometry x="-0.7263" y="1" relative="1" as="geometry">
            <mxPoint y="1" as="offset" />
          </mxGeometry>
        </mxCell>
        <mxCell id="RmWxMyqj5i7oZx28vhqG-21" style="edgeStyle=orthogonalEdgeStyle;rounded=0;orthogonalLoop=1;jettySize=auto;html=1;entryX=0.491;entryY=1.011;entryDx=0;entryDy=0;entryPerimeter=0;strokeWidth=4;strokeColor=#004C99;" parent="1" source="oiA-mQmHKhEabUs_qZRi-6" target="oiA-mQmHKhEabUs_qZRi-32" edge="1">
          <mxGeometry relative="1" as="geometry">
            <mxPoint x="1420" y="240" as="targetPoint" />
            <Array as="points">
              <mxPoint x="365" y="200" />
              <mxPoint x="1463" y="200" />
            </Array>
          </mxGeometry>
        </mxCell>
        <mxCell id="RmWxMyqj5i7oZx28vhqG-80" value="&lt;font style=&quot;font-size: 13px;&quot; color=&quot;#004c99&quot;&gt;records the download status&lt;/font&gt;" style="edgeLabel;html=1;align=center;verticalAlign=middle;resizable=0;points=[];" parent="RmWxMyqj5i7oZx28vhqG-21" vertex="1" connectable="0">
          <mxGeometry x="-0.7753" y="2" relative="1" as="geometry">
            <mxPoint x="17" as="offset" />
          </mxGeometry>
        </mxCell>
        <mxCell id="RmWxMyqj5i7oZx28vhqG-22" value="" style="rounded=0;whiteSpace=wrap;html=1;" parent="1" vertex="1">
          <mxGeometry x="-370" y="1200" width="1190" height="931" as="geometry" />
        </mxCell>
        <mxCell id="RmWxMyqj5i7oZx28vhqG-23" value="" style="rounded=0;whiteSpace=wrap;html=1;" parent="1" vertex="1">
          <mxGeometry x="-360" y="1270" width="310" height="840" as="geometry" />
        </mxCell>
        <mxCell id="RmWxMyqj5i7oZx28vhqG-26" value="&lt;span style=&quot;font-size: 20px;&quot;&gt;&lt;b&gt;The main file of this project&lt;/b&gt;&lt;/span&gt;&lt;br style=&quot;font-size: 14px&quot;&gt;It contains instructions inside for intercepting and processing messages in telegram" style="html=1;shadow=0;dashed=0;shape=mxgraph.bootstrap.rrect;rSize=5;strokeColor=#5B646A;html=1;whiteSpace=wrap;fillColor=#6C767D;fontColor=#ffffff;verticalAlign=bottom;align=left;spacing=20;spacingBottom=0;fontSize=14;" parent="1" vertex="1">
          <mxGeometry x="275" y="1627" width="250" height="180" as="geometry" />
        </mxCell>
        <mxCell id="RmWxMyqj5i7oZx28vhqG-27" value="bot.py" style="html=1;shadow=0;dashed=0;shape=mxgraph.bootstrap.topButton;rSize=5;perimeter=none;whiteSpace=wrap;fillColor=#697279;strokeColor=#5B646A;fontColor=#ffffff;resizeWidth=1;fontSize=18;align=left;spacing=20;" parent="RmWxMyqj5i7oZx28vhqG-26" vertex="1">
          <mxGeometry width="250" height="50" relative="1" as="geometry" />
        </mxCell>
        <mxCell id="RmWxMyqj5i7oZx28vhqG-29" value="&lt;span style=&quot;font-size: 20px;&quot;&gt;&lt;b&gt;The instagram&amp;nbsp;&lt;/b&gt;&lt;/span&gt;&lt;div&gt;&lt;span style=&quot;font-size: 20px;&quot;&gt;&lt;b&gt;downloader class&lt;/b&gt;&lt;/span&gt;&lt;br style=&quot;font-size: 14px&quot;&gt;Contains classes and methods for uploading content from instagram to temporary storage.&lt;/div&gt;" style="html=1;shadow=0;dashed=0;shape=mxgraph.bootstrap.rrect;rSize=5;strokeColor=#0071D5;html=1;whiteSpace=wrap;fillColor=#0085FC;fontColor=#ffffff;verticalAlign=bottom;align=left;spacing=20;spacingBottom=0;fontSize=14;" parent="1" vertex="1">
          <mxGeometry x="-340" y="1320" width="260" height="180" as="geometry" />
        </mxCell>
        <mxCell id="RmWxMyqj5i7oZx28vhqG-30" value="downloader.py" style="html=1;shadow=0;dashed=0;shape=mxgraph.bootstrap.topButton;rSize=5;perimeter=none;whiteSpace=wrap;fillColor=#0081F4;strokeColor=#0071D5;fontColor=#ffffff;resizeWidth=1;fontSize=18;align=left;spacing=20;" parent="RmWxMyqj5i7oZx28vhqG-29" vertex="1">
          <mxGeometry width="260" height="50" relative="1" as="geometry" />
        </mxCell>
        <mxCell id="Q303FKRvxHJgQ1L4vRVw-17" style="edgeStyle=orthogonalEdgeStyle;rounded=0;orthogonalLoop=1;jettySize=auto;html=1;entryX=0.002;entryY=0.501;entryDx=0;entryDy=0;entryPerimeter=0;strokeWidth=3;" edge="1" parent="1" source="RmWxMyqj5i7oZx28vhqG-32" target="RmWxMyqj5i7oZx28vhqG-26">
          <mxGeometry relative="1" as="geometry">
            <Array as="points">
              <mxPoint x="-60" y="1603" />
              <mxPoint x="-60" y="1717" />
            </Array>
          </mxGeometry>
        </mxCell>
        <mxCell id="RmWxMyqj5i7oZx28vhqG-32" value="&lt;span style=&quot;font-size: 20px;&quot;&gt;&lt;b&gt;The cloud uploader class&lt;/b&gt;&lt;/span&gt;&lt;br style=&quot;font-size: 14px&quot;&gt;Contains classes and methods for uploading content from a temporary directory to the target cloud" style="html=1;shadow=0;dashed=0;shape=mxgraph.bootstrap.rrect;rSize=5;strokeColor=#2B8D40;html=1;whiteSpace=wrap;fillColor=#33A64C;fontColor=#ffffff;verticalAlign=bottom;align=left;spacing=20;spacingBottom=0;fontSize=14;" parent="1" vertex="1">
          <mxGeometry x="-340" y="1513" width="260" height="180" as="geometry" />
        </mxCell>
        <mxCell id="RmWxMyqj5i7oZx28vhqG-33" value="uploader.py" style="html=1;shadow=0;dashed=0;shape=mxgraph.bootstrap.topButton;rSize=5;perimeter=none;whiteSpace=wrap;fillColor=#31A14A;strokeColor=#2B8D40;fontColor=#ffffff;resizeWidth=1;fontSize=18;align=left;spacing=20;" parent="RmWxMyqj5i7oZx28vhqG-32" vertex="1">
          <mxGeometry width="260" height="50" relative="1" as="geometry" />
        </mxCell>
        <mxCell id="RmWxMyqj5i7oZx28vhqG-37" value="Import classes and functions" style="text;html=1;align=center;verticalAlign=middle;resizable=0;points=[];autosize=1;strokeColor=none;fillColor=none;fontSize=16;" parent="1" vertex="1">
          <mxGeometry x="15" y="1680" width="230" height="30" as="geometry" />
        </mxCell>
        <mxCell id="RmWxMyqj5i7oZx28vhqG-41" value="&lt;b style=&quot;font-size: 20px;&quot;&gt;Modules&lt;/b&gt;" style="text;html=1;strokeColor=none;fillColor=none;align=center;verticalAlign=middle;whiteSpace=wrap;rounded=0;fontSize=20;" parent="1" vertex="1">
          <mxGeometry x="-235" y="1280" width="60" height="30" as="geometry" />
        </mxCell>
        <mxCell id="RmWxMyqj5i7oZx28vhqG-42" value="" style="rounded=0;whiteSpace=wrap;html=1;" parent="1" vertex="1">
          <mxGeometry x="-40" y="1270" width="840" height="250" as="geometry" />
        </mxCell>
        <mxCell id="RmWxMyqj5i7oZx28vhqG-44" value="&lt;span style=&quot;font-size: 20px;&quot;&gt;&lt;b&gt;Configuration for the messages module&lt;/b&gt;&lt;/span&gt;&lt;br style=&quot;font-size: 14px&quot;&gt;The configuration contains templates for generating messages in a telegram" style="html=1;shadow=0;dashed=0;shape=mxgraph.bootstrap.rrect;rSize=5;strokeColor=#6C767D;html=1;whiteSpace=wrap;fillColor=#ffffff;fontColor=#212529;verticalAlign=bottom;align=left;spacing=20;spacingBottom=0;fontSize=14;" parent="1" vertex="1">
          <mxGeometry x="-30" y="1321" width="250" height="180" as="geometry" />
        </mxCell>
        <mxCell id="RmWxMyqj5i7oZx28vhqG-45" value="messages.json" style="html=1;shadow=0;dashed=0;shape=mxgraph.bootstrap.topButton;rSize=5;perimeter=none;whiteSpace=wrap;fillColor=#F7F7F7;strokeColor=#6C767D;fontColor=#6C767D;resizeWidth=1;fontSize=18;align=left;spacing=20;" parent="RmWxMyqj5i7oZx28vhqG-44" vertex="1">
          <mxGeometry width="250" height="50" relative="1" as="geometry" />
        </mxCell>
        <mxCell id="RmWxMyqj5i7oZx28vhqG-60" value="Running the general code" style="text;html=1;align=center;verticalAlign=middle;resizable=0;points=[];autosize=1;strokeColor=none;fillColor=none;" parent="1" vertex="1">
          <mxGeometry x="605" y="1869" width="160" height="30" as="geometry" />
        </mxCell>
        <mxCell id="RmWxMyqj5i7oZx28vhqG-61" value="Creating and configuring instances" style="text;html=1;align=center;verticalAlign=middle;resizable=0;points=[];autosize=1;strokeColor=none;fillColor=none;fontSize=15;" parent="1" vertex="1">
          <mxGeometry x="840" y="1702" width="250" height="30" as="geometry" />
        </mxCell>
        <mxCell id="RmWxMyqj5i7oZx28vhqG-67" value="&lt;b style=&quot;font-size: 25px;&quot;&gt;&lt;font style=&quot;font-size: 25px;&quot;&gt;Pyinstabot-Downloader&lt;/font&gt;&lt;/b&gt;" style="text;html=1;strokeColor=none;fillColor=none;align=center;verticalAlign=middle;whiteSpace=wrap;rounded=0;fontSize=25;" parent="1" vertex="1">
          <mxGeometry x="147.5" y="1220" width="375" height="30" as="geometry" />
        </mxCell>
        <mxCell id="oiA-mQmHKhEabUs_qZRi-53" value="&lt;b&gt;&lt;font style=&quot;font-size: 15px;&quot;&gt;Pyinstabot-Downloader&lt;/font&gt;&lt;/b&gt;" style="text;html=1;strokeColor=none;fillColor=none;align=center;verticalAlign=middle;whiteSpace=wrap;rounded=0;" parent="1" vertex="1">
          <mxGeometry x="625" y="-190" width="260" height="30" as="geometry" />
        </mxCell>
        <mxCell id="OaGA0c1bOPBYphkwenMN-4" value="&lt;h1&gt;&lt;font&gt;4.&amp;nbsp;Generate a message&amp;nbsp;&lt;/font&gt;&lt;/h1&gt;&lt;p&gt;&lt;font&gt;build message body with report&lt;/font&gt;&lt;/p&gt;" style="text;html=1;strokeColor=none;fillColor=none;spacing=5;spacingTop=-20;whiteSpace=wrap;overflow=hidden;rounded=0;fontColor=#00CCCC;" parent="1" vertex="1">
          <mxGeometry x="905" y="490" width="285" height="80" as="geometry" />
        </mxCell>
        <mxCell id="OaGA0c1bOPBYphkwenMN-5" style="edgeStyle=orthogonalEdgeStyle;rounded=0;orthogonalLoop=1;jettySize=auto;html=1;strokeWidth=4;strokeColor=#00CCCC;startArrow=classic;startFill=1;" parent="1" source="oiA-mQmHKhEabUs_qZRi-4" target="oiA-mQmHKhEabUs_qZRi-38" edge="1">
          <mxGeometry relative="1" as="geometry">
            <mxPoint x="1990" y="190" as="targetPoint" />
          </mxGeometry>
        </mxCell>
        <mxCell id="OaGA0c1bOPBYphkwenMN-6" style="edgeStyle=orthogonalEdgeStyle;rounded=0;orthogonalLoop=1;jettySize=auto;html=1;entryX=0.448;entryY=-0.012;entryDx=0;entryDy=0;entryPerimeter=0;exitX=0.496;exitY=-0.006;exitDx=0;exitDy=0;exitPerimeter=0;strokeColor=#00CCCC;strokeWidth=4;" parent="1" source="oiA-mQmHKhEabUs_qZRi-39" target="oiA-mQmHKhEabUs_qZRi-21" edge="1">
          <mxGeometry relative="1" as="geometry">
            <mxPoint x="2060" y="-60" as="sourcePoint" />
            <Array as="points">
              <mxPoint x="2055" y="-70" />
              <mxPoint x="2055" y="-140" />
              <mxPoint x="1097" y="-140" />
            </Array>
          </mxGeometry>
        </mxCell>
        <mxCell id="OaGA0c1bOPBYphkwenMN-8" value="&lt;font style=&quot;font-size: 13px;&quot; color=&quot;#00cccc&quot;&gt;Read a message template&lt;/font&gt;" style="edgeLabel;html=1;align=center;verticalAlign=middle;resizable=0;points=[];" parent="OaGA0c1bOPBYphkwenMN-6" vertex="1" connectable="0">
          <mxGeometry x="-0.7039" y="1" relative="1" as="geometry">
            <mxPoint as="offset" />
          </mxGeometry>
        </mxCell>
        <mxCell id="oiA-mQmHKhEabUs_qZRi-27" value="&lt;b&gt;Configs&lt;/b&gt;" style="text;html=1;strokeColor=none;fillColor=none;align=center;verticalAlign=middle;whiteSpace=wrap;rounded=0;" parent="1" vertex="1">
          <mxGeometry x="1080" y="-130" width="60" height="30" as="geometry" />
        </mxCell>
        <mxCell id="Q303FKRvxHJgQ1L4vRVw-20" style="edgeStyle=orthogonalEdgeStyle;rounded=0;orthogonalLoop=1;jettySize=auto;html=1;strokeWidth=3;" edge="1" parent="1" source="Q303FKRvxHJgQ1L4vRVw-1" target="RmWxMyqj5i7oZx28vhqG-26">
          <mxGeometry relative="1" as="geometry">
            <Array as="points">
              <mxPoint x="-60" y="1800" />
              <mxPoint x="-60" y="1717" />
            </Array>
          </mxGeometry>
        </mxCell>
        <mxCell id="Q303FKRvxHJgQ1L4vRVw-1" value="&lt;span style=&quot;font-size: 20px;&quot;&gt;&lt;b&gt;The postgresql database class&lt;/b&gt;&lt;/span&gt;&lt;br style=&quot;font-size: 14px&quot;&gt;Contains classes and methods for interacting with the database" style="html=1;shadow=0;dashed=0;shape=mxgraph.bootstrap.rrect;rSize=5;strokeColor=#9673a6;html=1;whiteSpace=wrap;fillColor=#e1d5e7;verticalAlign=bottom;align=left;spacing=20;spacingBottom=0;fontSize=14;" vertex="1" parent="1">
          <mxGeometry x="-340" y="1710" width="260" height="180" as="geometry" />
        </mxCell>
        <mxCell id="Q303FKRvxHJgQ1L4vRVw-2" value="database.py" style="html=1;shadow=0;dashed=0;shape=mxgraph.bootstrap.topButton;rSize=5;perimeter=none;whiteSpace=wrap;fillColor=#e1d5e7;strokeColor=#9673a6;resizeWidth=1;fontSize=18;align=left;spacing=20;" vertex="1" parent="Q303FKRvxHJgQ1L4vRVw-1">
          <mxGeometry width="260" height="50" relative="1" as="geometry" />
        </mxCell>
        <mxCell id="Q303FKRvxHJgQ1L4vRVw-5" value="&lt;span style=&quot;font-size: 20px;&quot;&gt;&lt;b&gt;The additional support functions&lt;/b&gt;&lt;/span&gt;&lt;br style=&quot;font-size: 14px&quot;&gt;Additional auxiliary functions for the bot and other modules" style="html=1;shadow=0;dashed=0;shape=mxgraph.bootstrap.rrect;rSize=5;strokeColor=#666666;html=1;whiteSpace=wrap;fillColor=#f5f5f5;fontColor=#333333;verticalAlign=bottom;align=left;spacing=20;spacingBottom=0;fontSize=14;" vertex="1" parent="1">
          <mxGeometry x="-340" y="1910" width="260" height="180" as="geometry" />
        </mxCell>
        <mxCell id="Q303FKRvxHJgQ1L4vRVw-6" value="tools.py" style="html=1;shadow=0;dashed=0;shape=mxgraph.bootstrap.topButton;rSize=5;perimeter=none;whiteSpace=wrap;fillColor=#f5f5f5;strokeColor=#666666;fontColor=#333333;resizeWidth=1;fontSize=18;align=left;spacing=20;" vertex="1" parent="Q303FKRvxHJgQ1L4vRVw-5">
          <mxGeometry width="260" height="50" relative="1" as="geometry" />
        </mxCell>
        <mxCell id="Q303FKRvxHJgQ1L4vRVw-8" value="&lt;b&gt;Configs&lt;/b&gt;" style="text;html=1;strokeColor=none;fillColor=none;align=center;verticalAlign=middle;whiteSpace=wrap;rounded=0;fontSize=20;" vertex="1" parent="1">
          <mxGeometry x="305" y="1280" width="60" height="30" as="geometry" />
        </mxCell>
        <mxCell id="Q303FKRvxHJgQ1L4vRVw-22" style="edgeStyle=orthogonalEdgeStyle;rounded=0;orthogonalLoop=1;jettySize=auto;html=1;strokeWidth=3;" edge="1" parent="1" source="Q303FKRvxHJgQ1L4vRVw-9" target="Q303FKRvxHJgQ1L4vRVw-12">
          <mxGeometry relative="1" as="geometry">
            <Array as="points">
              <mxPoint x="645" y="1830" />
              <mxPoint x="375" y="1830" />
            </Array>
          </mxGeometry>
        </mxCell>
        <mxCell id="Q303FKRvxHJgQ1L4vRVw-9" value="&lt;span style=&quot;font-size: 20px;&quot;&gt;&lt;b&gt;Configuration for the database module&lt;/b&gt;&lt;/span&gt;&lt;br style=&quot;font-size: 14px&quot;&gt;The configuration contains schemas of the tables to be created in the database and default data for these tables" style="html=1;shadow=0;dashed=0;shape=mxgraph.bootstrap.rrect;rSize=5;strokeColor=#6C767D;html=1;whiteSpace=wrap;fillColor=#ffffff;fontColor=#212529;verticalAlign=bottom;align=left;spacing=20;spacingBottom=0;fontSize=14;" vertex="1" parent="1">
          <mxGeometry x="500" y="1320" width="290" height="180" as="geometry" />
        </mxCell>
        <mxCell id="Q303FKRvxHJgQ1L4vRVw-10" value="databases.json" style="html=1;shadow=0;dashed=0;shape=mxgraph.bootstrap.topButton;rSize=5;perimeter=none;whiteSpace=wrap;fillColor=#F7F7F7;strokeColor=#6C767D;fontColor=#6C767D;resizeWidth=1;fontSize=18;align=left;spacing=20;" vertex="1" parent="Q303FKRvxHJgQ1L4vRVw-9">
          <mxGeometry width="290" height="50" relative="1" as="geometry" />
        </mxCell>
        <mxCell id="RmWxMyqj5i7oZx28vhqG-35" value="&lt;span style=&quot;font-size: 20px;&quot;&gt;&lt;b&gt;The constants of this project&lt;/b&gt;&lt;/span&gt;&lt;div&gt;It contains all constants and environments variables&lt;/div&gt;&lt;div&gt;&lt;br&gt;&lt;/div&gt;" style="html=1;shadow=0;dashed=0;shape=mxgraph.bootstrap.rrect;rSize=5;html=1;whiteSpace=wrap;verticalAlign=bottom;align=left;spacing=20;spacingBottom=0;fontSize=14;" parent="1" vertex="1">
          <mxGeometry x="232.5" y="1320" width="250" height="180" as="geometry" />
        </mxCell>
        <mxCell id="RmWxMyqj5i7oZx28vhqG-36" value="&lt;font color=&quot;#6c767d&quot;&gt;constants.py&lt;/font&gt;" style="html=1;shadow=0;dashed=0;shape=mxgraph.bootstrap.topButton;rSize=5;perimeter=none;whiteSpace=wrap;fillColor=#f5f5f5;strokeColor=#666666;fontColor=#333333;resizeWidth=1;fontSize=18;align=left;spacing=20;" parent="RmWxMyqj5i7oZx28vhqG-35" vertex="1">
          <mxGeometry width="250" height="50" relative="1" as="geometry" />
        </mxCell>
        <mxCell id="Q303FKRvxHJgQ1L4vRVw-12" value="" style="rounded=0;whiteSpace=wrap;html=1;" vertex="1" parent="1">
          <mxGeometry x="-40" y="1860" width="830" height="250" as="geometry" />
        </mxCell>
        <mxCell id="Q303FKRvxHJgQ1L4vRVw-13" value="&lt;b&gt;Migrations&lt;/b&gt;" style="text;html=1;strokeColor=none;fillColor=none;align=center;verticalAlign=middle;whiteSpace=wrap;rounded=0;fontSize=20;" vertex="1" parent="1">
          <mxGeometry x="310" y="1869" width="60" height="30" as="geometry" />
        </mxCell>
        <mxCell id="Q303FKRvxHJgQ1L4vRVw-14" value="&lt;span style=&quot;font-size: 20px;&quot;&gt;&lt;b&gt;Migrations for the database&lt;/b&gt;&lt;/span&gt;&lt;div&gt;Contains small scripts to perform database migrations between different versions of a project&lt;/div&gt;" style="html=1;shadow=0;dashed=0;shape=mxgraph.bootstrap.rrect;rSize=5;html=1;whiteSpace=wrap;verticalAlign=bottom;align=left;spacing=20;spacingBottom=0;fontSize=14;" vertex="1" parent="1">
          <mxGeometry x="250" y="1910" width="250" height="180" as="geometry" />
        </mxCell>
        <mxCell id="Q303FKRvxHJgQ1L4vRVw-15" value="&lt;font color=&quot;#6c767d&quot;&gt;&amp;lt;index&amp;gt;-&amp;lt;name&amp;gt;.py&lt;/font&gt;" style="html=1;shadow=0;dashed=0;shape=mxgraph.bootstrap.topButton;rSize=5;perimeter=none;whiteSpace=wrap;fillColor=#f5f5f5;strokeColor=#666666;fontColor=#333333;resizeWidth=1;fontSize=18;align=left;spacing=20;" vertex="1" parent="Q303FKRvxHJgQ1L4vRVw-14">
          <mxGeometry width="250" height="50" relative="1" as="geometry" />
        </mxCell>
        <mxCell id="Q303FKRvxHJgQ1L4vRVw-16" style="edgeStyle=orthogonalEdgeStyle;rounded=0;orthogonalLoop=1;jettySize=auto;html=1;entryX=0.002;entryY=0.509;entryDx=0;entryDy=0;entryPerimeter=0;strokeWidth=3;" edge="1" parent="1" source="RmWxMyqj5i7oZx28vhqG-29" target="RmWxMyqj5i7oZx28vhqG-26">
          <mxGeometry relative="1" as="geometry">
            <Array as="points">
              <mxPoint x="-60" y="1460" />
              <mxPoint x="-60" y="1719" />
            </Array>
          </mxGeometry>
        </mxCell>
        <mxCell id="Q303FKRvxHJgQ1L4vRVw-21" style="edgeStyle=orthogonalEdgeStyle;rounded=0;orthogonalLoop=1;jettySize=auto;html=1;entryX=-0.003;entryY=0.501;entryDx=0;entryDy=0;entryPerimeter=0;strokeWidth=3;" edge="1" parent="1" source="Q303FKRvxHJgQ1L4vRVw-5" target="RmWxMyqj5i7oZx28vhqG-26">
          <mxGeometry relative="1" as="geometry">
            <Array as="points">
              <mxPoint x="-60" y="2000" />
              <mxPoint x="-60" y="1717" />
            </Array>
          </mxGeometry>
        </mxCell>
        <mxCell id="Q303FKRvxHJgQ1L4vRVw-23" value="Read and execute migrations" style="text;html=1;align=center;verticalAlign=middle;resizable=0;points=[];autosize=1;strokeColor=none;fillColor=none;fontSize=15;rotation=90;" vertex="1" parent="1">
          <mxGeometry x="555" y="1618" width="220" height="30" as="geometry" />
        </mxCell>
        <mxCell id="Q303FKRvxHJgQ1L4vRVw-26" style="edgeStyle=orthogonalEdgeStyle;rounded=0;orthogonalLoop=1;jettySize=auto;html=1;entryX=0.997;entryY=0.62;entryDx=0;entryDy=0;entryPerimeter=0;strokeWidth=3;strokeColor=#1CA5B8;" edge="1" parent="1" source="RmWxMyqj5i7oZx28vhqG-47" target="RmWxMyqj5i7oZx28vhqG-26">
          <mxGeometry relative="1" as="geometry">
            <Array as="points">
              <mxPoint x="1000" y="1739" />
              <mxPoint x="1000" y="1739" />
            </Array>
          </mxGeometry>
        </mxCell>
        <mxCell id="RmWxMyqj5i7oZx28vhqG-47" value="" style="rounded=0;whiteSpace=wrap;html=1;" parent="1" vertex="1">
          <mxGeometry x="1110" y="1200" width="330" height="930" as="geometry" />
        </mxCell>
        <mxCell id="RmWxMyqj5i7oZx28vhqG-48" value="&lt;b style=&quot;font-size: 21px;&quot;&gt;External modules&lt;/b&gt;" style="text;html=1;strokeColor=none;fillColor=none;align=center;verticalAlign=middle;whiteSpace=wrap;rounded=0;fontSize=21;" parent="1" vertex="1">
          <mxGeometry x="1150" y="1210" width="245" height="30" as="geometry" />
        </mxCell>
        <mxCell id="RmWxMyqj5i7oZx28vhqG-49" value="&lt;b&gt;&lt;font style=&quot;font-size: 20px&quot;&gt;Interactions with vault-server&lt;/font&gt;&lt;/b&gt;&lt;br style=&quot;font-size: 14px&quot;&gt;&lt;br style=&quot;font-size: 14px&quot;&gt;A class that implements convenient methods for reading, writing, and retrieving a list of secrets from vault" style="html=1;shadow=0;dashed=0;shape=mxgraph.bootstrap.rrect;rSize=5;strokeColor=#188C9C;html=1;whiteSpace=wrap;fillColor=#1CA5B8;fontColor=#ffffff;verticalAlign=bottom;align=left;spacing=20;spacingBottom=0;fontSize=14;" parent="1" vertex="1">
          <mxGeometry x="1150" y="1250" width="250" height="210" as="geometry" />
        </mxCell>
        <mxCell id="RmWxMyqj5i7oZx28vhqG-50" value="vault-package" style="html=1;shadow=0;dashed=0;shape=mxgraph.bootstrap.topButton;rSize=5;perimeter=none;whiteSpace=wrap;fillColor=#1BA0B2;strokeColor=#188C9C;fontColor=#ffffff;resizeWidth=1;fontSize=18;align=left;spacing=20;" parent="RmWxMyqj5i7oZx28vhqG-49" vertex="1">
          <mxGeometry width="250" height="50" relative="1" as="geometry" />
        </mxCell>
        <mxCell id="RmWxMyqj5i7oZx28vhqG-52" value="&lt;span style=&quot;font-size: 20px;&quot;&gt;&lt;b&gt;Easy management of user attributes and permissions&lt;/b&gt;&lt;/span&gt;&lt;br style=&quot;font-size: 14px&quot;&gt;A class that implements convenient methods for authentication functions and user attribute management" style="html=1;shadow=0;dashed=0;shape=mxgraph.bootstrap.rrect;rSize=5;strokeColor=#188C9C;html=1;whiteSpace=wrap;fillColor=#1CA5B8;fontColor=#ffffff;verticalAlign=bottom;align=left;spacing=20;spacingBottom=0;fontSize=14;" parent="1" vertex="1">
          <mxGeometry x="1150" y="1470" width="250" height="210" as="geometry" />
        </mxCell>
        <mxCell id="RmWxMyqj5i7oZx28vhqG-53" value="users-package" style="html=1;shadow=0;dashed=0;shape=mxgraph.bootstrap.topButton;rSize=5;perimeter=none;whiteSpace=wrap;fillColor=#1BA0B2;strokeColor=#188C9C;fontColor=#ffffff;resizeWidth=1;fontSize=18;align=left;spacing=20;" parent="RmWxMyqj5i7oZx28vhqG-52" vertex="1">
          <mxGeometry width="250" height="50" relative="1" as="geometry" />
        </mxCell>
        <mxCell id="RmWxMyqj5i7oZx28vhqG-54" value="&lt;span style=&quot;font-size: 20px;&quot;&gt;&lt;b&gt;Fast configuration and&amp;nbsp;initialization bot&lt;/b&gt;&lt;/span&gt;&lt;br style=&quot;font-size: 14px&quot;&gt;A class that implements convenient methods for bot handlers and sending formatted messages" style="html=1;shadow=0;dashed=0;shape=mxgraph.bootstrap.rrect;rSize=5;strokeColor=#188C9C;html=1;whiteSpace=wrap;fillColor=#1CA5B8;fontColor=#ffffff;verticalAlign=bottom;align=left;spacing=20;spacingBottom=0;fontSize=14;" parent="1" vertex="1">
          <mxGeometry x="1150" y="1689" width="250" height="210" as="geometry" />
        </mxCell>
        <mxCell id="RmWxMyqj5i7oZx28vhqG-55" value="telegram-package" style="html=1;shadow=0;dashed=0;shape=mxgraph.bootstrap.topButton;rSize=5;perimeter=none;whiteSpace=wrap;fillColor=#1BA0B2;strokeColor=#188C9C;fontColor=#ffffff;resizeWidth=1;fontSize=18;align=left;spacing=20;" parent="RmWxMyqj5i7oZx28vhqG-54" vertex="1">
          <mxGeometry width="250" height="50" relative="1" as="geometry" />
        </mxCell>
        <mxCell id="RmWxMyqj5i7oZx28vhqG-58" value="&lt;span style=&quot;font-size: 20px;&quot;&gt;&lt;b&gt;Easy and unified logging&lt;/b&gt;&lt;/span&gt;&lt;br style=&quot;font-size: 14px&quot;&gt;Contains ready-made logger settings" style="html=1;shadow=0;dashed=0;shape=mxgraph.bootstrap.rrect;rSize=5;strokeColor=#188C9C;html=1;whiteSpace=wrap;fillColor=#1CA5B8;fontColor=#ffffff;verticalAlign=bottom;align=left;spacing=20;spacingBottom=0;fontSize=14;" parent="1" vertex="1">
          <mxGeometry x="1150" y="1910" width="250" height="210" as="geometry" />
        </mxCell>
        <mxCell id="RmWxMyqj5i7oZx28vhqG-59" value="logger-package" style="html=1;shadow=0;dashed=0;shape=mxgraph.bootstrap.topButton;rSize=5;perimeter=none;whiteSpace=wrap;fillColor=#1BA0B2;strokeColor=#188C9C;fontColor=#ffffff;resizeWidth=1;fontSize=18;align=left;spacing=20;" parent="RmWxMyqj5i7oZx28vhqG-58" vertex="1">
          <mxGeometry width="250" height="50" relative="1" as="geometry" />
        </mxCell>
      </root>
    </mxGraphModel>
  </diagram>
</mxfile>
